<?xml version="1.0" standalone="no"?>
<!DOCTYPE svg PUBLIC "-//W3C//DTD SVG 1.1//EN" "http://www.w3.org/Graphics/SVG/1.1/DTD/svg11.dtd" >
<svg xmlns="http://www.w3.org/2000/svg">
<metadata>Generated by IcoMoon</metadata>
<defs>
<font id="icomoon" horiz-adv-x="1024">
<font-face units-per-em="1024" ascent="960" descent="-64" />
<missing-glyph horiz-adv-x="1024" />
<glyph unicode="&#x20;" horiz-adv-x="512" d="" />
<glyph unicode="&#xe900;" glyph-name="clock" d="M512-43.52c-270.336 0-491.52 221.184-491.52 491.52s221.184 491.52 491.52 491.52c270.336 0 491.52-221.184 491.52-491.52s-221.184-491.52-491.52-491.52zM512 865.792c-229.376 0-417.792-188.416-417.792-417.792s186.368-417.792 417.792-417.792 417.792 188.416 417.792 417.792c0 229.376-188.416 417.792-417.792 417.792zM638.976 282.112h-307.2v73.728h231.424v354.304h75.776z" />
<glyph unicode="&#xe901;" glyph-name="down-arrow" d="M1003.52 650.752l-491.52-491.52-491.52 491.52 88.064 86.016 403.456-403.456 403.456 403.456z" />
<glyph unicode="&#xe902;" glyph-name="facebook" d="M389.12-43.52h198.656v495.616h137.216l14.336 165.888h-153.6v94.208c0 38.912 8.192 55.296 45.056 55.296h106.496v172.032h-137.216c-145.408 0-210.944-65.536-210.944-188.416v-133.12h-102.4v-167.936h102.4v-493.568z" />
<glyph unicode="&#xe903;" glyph-name="instagram" d="M512 851.456c131.072 0 147.456 0 198.656-2.048 47.104-4.096 73.728-12.288 92.16-18.432 22.528-8.192 38.912-20.48 57.344-36.864 16.384-16.384 28.672-32.768 36.864-57.344 6.144-16.384 14.336-43.008 16.384-92.16 2.048-51.2 2.048-67.584 2.048-198.656s0-147.456-2.048-198.656c-2.048-47.104-10.24-73.728-16.384-92.16-8.192-22.528-20.48-38.912-36.864-57.344-16.384-16.384-32.768-28.672-57.344-36.864-16.384-6.144-43.008-14.336-92.16-16.384-51.2-2.048-67.584-2.048-198.656-2.048s-147.456 0-198.656 2.048c-47.104 2.048-73.728 10.24-92.16 16.384-22.528 8.192-38.912 20.48-57.344 36.864-16.384 16.384-28.672 32.768-36.864 57.344-4.096 20.48-12.288 47.104-14.336 94.208-2.048 51.2-2.048 67.584-2.048 198.656s0 147.456 2.048 198.656c2.048 47.104 10.24 73.728 16.384 92.16 8.192 22.528 20.48 38.912 36.864 57.344 16.384 16.384 32.768 28.672 57.344 36.864 16.384 4.096 43.008 12.288 90.112 14.336 51.2 4.096 67.584 4.096 198.656 4.096zM512 939.52c-133.12 0-149.504 0-202.752-2.048s-88.064-10.24-118.784-22.528c-32.768-14.336-59.392-30.72-88.064-57.344-26.624-28.672-43.008-55.296-55.296-88.064-12.288-30.72-20.48-67.584-22.528-118.784-4.096-53.248-4.096-69.632-4.096-202.752s0-149.504 2.048-202.752c2.048-53.248 10.24-88.064 22.528-118.784 14.336-32.768 30.72-59.392 57.344-88.064 26.624-26.624 55.296-45.056 86.016-57.344s67.584-20.48 118.784-22.528c55.296-2.048 71.68-2.048 204.8-2.048s149.504 0 202.752 2.048c53.248 2.048 88.064 10.24 118.784 22.528 32.768 12.288 59.392 28.672 86.016 57.344 26.624 26.624 45.056 55.296 57.344 88.064 12.288 30.72 20.48 67.584 22.528 118.784 4.096 53.248 4.096 69.632 4.096 202.752s0 149.504-2.048 202.752c-2.048 53.248-10.24 88.064-22.528 118.784-14.336 32.768-30.72 59.392-57.344 88.064-26.624 26.624-55.296 45.056-86.016 57.344s-67.584 20.48-118.784 22.528c-55.296 2.048-71.68 2.048-204.8 2.048zM512 699.904c-139.264 0-251.904-112.64-251.904-251.904s112.64-251.904 251.904-251.904c139.264 0 251.904 112.64 251.904 251.904s-112.64 251.904-251.904 251.904zM512 284.16c-90.112 0-163.84 73.728-163.84 163.84s73.728 163.84 163.84 163.84c90.112 0 163.84-73.728 163.84-163.84s-73.728-163.84-163.84-163.84zM833.536 710.144c0-32.768-26.624-59.392-59.392-59.392s-59.392 26.624-59.392 59.392c0 32.768 26.624 59.392 59.392 59.392s59.392-26.624 59.392-59.392z" />
<glyph unicode="&#xe904;" glyph-name="left-arrow" d="M714.752-43.52l-491.52 491.52 491.52 491.52 86.016-88.064-403.456-403.456 403.456-403.456z" />
<glyph unicode="&#xe905;" glyph-name="linkdin" d="M96.256 572.928h190.464v-616.448h-190.464v616.448zM141.312 697.856c65.536 0 120.832 53.248 120.832 120.832s-53.248 120.832-120.832 120.832c-67.584 0-120.832-53.248-120.832-120.832s53.248-120.832 120.832-120.832zM591.872 280.064c0 86.016 38.912 139.264 116.736 139.264 69.632 0 104.448-49.152 104.448-139.264v-323.584h190.464v391.168c0 165.888-94.208 245.76-225.28 245.76s-186.368-102.4-186.368-102.4v83.968h-182.272v-618.496h182.272v323.584z" />
<glyph unicode="&#xe906;" glyph-name="mail" d="M1003.52 116.224h-983.040v663.552h983.040v-663.552zM86.016 179.712h854.016v536.576h-854.016v-536.576zM512 413.184l-471.040 200.704 24.576 59.392 446.464-190.464 446.464 190.464 24.576-59.392z" />
<glyph unicode="&#xe907;" glyph-name="phone" d="M794.624 325.12l163.84-108.544c20.48-14.336 28.672-40.96 18.432-65.536l-38.912-92.16c-30.72-69.632-106.496-108.544-180.224-92.16-210.944 45.056-630.784 225.28-729.088 796.672-12.288 73.728 49.152 141.312 120.832 157.696l92.16 22.528c24.576 6.144 49.152-6.144 59.392-26.624l98.304-186.368c12.288-22.528 6.144-51.2-14.336-65.536l-90.112-73.728c-18.432-14.336-22.528-40.96-12.288-61.44 36.864-69.632 135.168-223.232 303.104-313.344 20.48-10.24 43.008-6.144 59.392 10.24l81.92 90.112c16.384 20.48 47.104 24.576 67.584 8.192z" />
<glyph unicode="&#xe908;" glyph-name="phone2" d="M942.080-43.52c-110.592 0-221.184 26.624-331.776 81.92s-208.896 124.928-294.912 212.992c-88.064 88.064-157.696 186.368-212.992 294.912-55.296 110.592-81.92 221.184-81.92 331.776 0 16.384 6.144 32.768 18.432 43.008 10.24 12.288 26.624 18.432 43.008 18.432h190.464c14.336 0 24.576-4.096 34.816-12.288s16.384-20.48 18.432-34.816l36.864-172.032c2.048-12.288 2.048-24.576 0-34.816s-6.144-18.432-14.336-26.624l-137.216-137.216c51.2-83.968 108.544-157.696 172.032-221.184s135.168-116.736 215.040-159.744l129.024 133.12c8.192 10.24 20.48 16.384 30.72 20.48 12.288 4.096 24.576 4.096 34.816 2.048l161.792-34.816c14.336-2.048 24.576-10.24 34.816-20.48 8.192-10.24 14.336-24.576 14.336-38.912v-184.32c0-16.384-6.144-32.768-18.432-43.008s-26.624-18.432-43.008-18.432zM169.984 595.456l110.592 112.64-32.768 149.504h-145.408c0-34.816 6.144-73.728 16.384-116.736s28.672-90.112 51.2-145.408zM673.792 99.84c36.864-16.384 77.824-30.72 120.832-43.008 43.008-10.24 86.016-16.384 126.976-18.432v145.408l-141.312 28.672-106.496-112.64z" />
<glyph unicode="&#xe909;" glyph-name="right-arrow" d="M309.248 939.52l491.52-491.52-491.52-491.52-86.016 88.064 258.048 260.096 145.408 143.36-403.456 403.456z" />
<glyph unicode="&#xe90a;" glyph-name="service" d="M524.288-53.76c-180.224 0-316.416 38.912-318.464 39.936-3.072 1.024-78.848 21.504-97.28 63.488-17.408 40.96 2.048 142.336 3.072 146.432 0 2.048 10.24 41.984 30.72 65.536 21.504 24.576 104.448 35.84 108.544 36.864 73.728 13.312 126.976 58.368 126.976 58.368l11.264 9.216-2.048-14.336c0 0-1.024-6.144 6.144-14.336 11.264-12.288 40.96-27.648 117.76-27.648s105.472 15.36 116.736 27.648c7.168 8.192 6.144 14.336 6.144 14.336v14.336l11.264-9.216c1.024 0 53.248-46.080 126.976-58.368 3.072 0 87.040-12.288 108.544-36.864 20.48-23.552 30.72-63.488 30.72-65.536 1.024-4.096 20.48-105.472 3.072-146.432-17.408-41.984-94.208-62.464-97.28-63.488-100.352-29.696-201.728-39.936-292.864-39.936zM378.88 342.528c-17.408-13.312-63.488-45.056-124.928-55.296-23.552-3.072-86.016-15.36-101.376-32.768-18.432-22.528-28.672-60.416-28.672-61.44s-19.456-101.376-4.096-140.288c15.36-36.864 89.088-56.32 90.112-56.32 3.072-1.024 307.2-88.064 605.184 0 1.024 0 74.752 19.456 90.112 57.344s-3.072 139.264-4.096 140.288c0 0-10.24 38.912-28.672 60.416-15.36 17.408-78.848 29.696-101.376 32.768-61.44 10.24-107.52 41.984-124.928 55.296-1.024-3.072-3.072-7.168-7.168-11.264-12.288-14.336-44.032-31.744-125.952-31.744s-113.664 17.408-126.976 31.744c-3.072 4.096-6.144 8.192-7.168 11.264zM513.024 352.768c-110.592 0-173.056 148.48-181.248 167.936-40.96 22.528-34.816 97.28-34.816 101.376v5.12h430.080v-5.12c0-3.072 3.072-80.896-34.816-100.352-6.144-21.504-69.632-168.96-179.2-168.96zM308.224 615.936c-1.024-16.384 0-70.656 30.72-86.016l2.048-1.024 1.024-2.048c1.024-2.048 63.488-162.816 171.008-162.816 108.544 0 171.008 161.792 171.008 162.816l1.024 2.048 2.048 1.024c25.6 11.264 30.72 62.464 30.72 86.016h-409.6zM726.016 655.872h-430.080c-19.456 0-35.84 16.384-35.84 35.84v3.072c0 19.456 16.384 35.84 35.84 35.84h5.12c10.24 115.712 87.040 164.864 110.592 176.128 3.072 1.024 6.144 2.048 9.216 0 3.072-1.024 5.12-4.096 5.12-7.168l16.384-92.16c0-3.072 2.048-5.12 4.096-6.144s5.12-2.048 7.168-1.024l3.072 1.024c2.048 0 5.12 2.048 6.144 4.096s2.048 5.12 1.024 7.168l-23.552 108.544 1.024 2.048c11.264 26.624 39.936 26.624 41.984 26.624h59.392c29.696-4.096 37.888-22.528 37.888-23.552l1.024-1.024-17.408-115.712c0-3.072 0-5.12 2.048-7.168s4.096-3.072 6.144-4.096c5.12-1.024 10.24 3.072 10.24 8.192l13.312 92.16c0 3.072 2.048 6.144 5.12 7.168s6.144 1.024 9.216 0c106.496-56.32 111.616-154.624 110.592-180.224h4.096c19.456 0 35.84-16.384 35.84-35.84s-15.36-33.792-34.816-33.792zM295.936 719.36c-13.312 0-24.576-11.264-24.576-24.576v-3.072c0-13.312 11.264-24.576 24.576-24.576h430.080c13.312 0 24.576 11.264 24.576 24.576s-11.264 24.576-24.576 24.576h-16.384l1.024 6.144c0 4.096 11.264 112.64-103.424 174.080l-13.312-92.16c-2.048-11.264-11.264-18.432-22.528-17.408-5.12 1.024-10.24 3.072-14.336 8.192s-5.12 10.24-4.096 15.36l17.408 112.64c-2.048 3.072-9.216 13.312-28.672 15.36h-59.392c-1.024 0-22.528 0-30.72-18.432l23.552-106.496c1.024-5.12 0-11.264-3.072-15.36s-8.192-8.192-13.312-9.216l-3.072-1.024c-5.12-1.024-11.264 0-15.36 3.072s-7.168 8.192-8.192 13.312l-16.384 91.136c-23.552-12.288-95.232-60.416-103.424-172.032v-5.12h-16.384v1.024z" />
<glyph unicode="&#xe90b;" glyph-name="up-arrow" d="M20.48 245.248l491.52 491.52 491.52-491.52-88.064-86.016-403.456 403.456-403.456-403.456z" />
<glyph unicode="&#xe90c;" glyph-name="waterdrop" d="M1010.688 41.472l-117.76 132.096c-36.864 40.96-53.248 97.28-45.056 153.6 11.264 37.888 17.408 78.848 17.408 120.832 0 212.992-155.648 388.096-359.424 420.864-5.12 1.024-10.24 2.048-15.36 2.048-5.12 1.024-11.264 1.024-16.384 2.048-2.048 0-5.12 1.024-7.168 1.024-4.096 0-7.168 0-11.264 0-5.12 0-10.24 1.024-16.384 1.024-3.072 0-5.12 0-8.192 0-9.216 0-18.432-1.024-26.624-1.024-4.096 0-9.216-1.024-13.312-1.024-12.288-1.024-24.576-3.072-36.864-5.12-1.024 0-1.024 0-2.048 0-76.8-15.36-147.456-51.2-206.848-106.496-86.016-81.92-135.168-195.584-135.168-313.344 0-235.52 191.488-427.008 427.008-427.008h564.224c5.12 0 9.216 3.072 11.264 7.168 2.048 5.12 1.024 10.24-2.048 13.312z" />
<glyph unicode="&#xe90d;" glyph-name="contact-mail" d="M997.376 701.952c0 38.912-32.768 71.68-71.68 71.68h-808.96c-38.912 0-71.68-32.768-71.68-71.68v-18.432l466.944-286.72 485.376 305.152zM978.944 613.888l-448.512-282.624c-10.24-6.144-24.576-6.144-34.816 0l-450.56 282.624c-8.192 4.096-18.432 0-18.432-10.24v-403.456c0-43.008 34.816-77.824 77.824-77.824h815.104c43.008 0 77.824 34.816 77.824 77.824v403.456c0 8.192-10.24 14.336-18.432 10.24z" />
<glyph unicode="&#xe90e;" glyph-name="location-pin" d="M512-51.712c-135.168 114.688-235.52 221.184-301.056 319.488s-98.304 188.416-98.304 270.336c0 124.928 40.96 225.28 120.832 299.008s172.032 110.592 278.528 110.592c104.448 0 198.656-36.864 278.528-110.592s120.832-174.080 120.832-299.008c0-81.92-32.768-172.032-98.304-270.336s-165.888-204.8-301.056-319.488zM512 445.952c30.72 0 55.296 10.24 75.776 30.72s30.72 47.104 30.72 75.776c0 26.624-10.24 51.2-30.72 73.728s-47.104 32.768-75.776 32.768c-30.72 0-55.296-10.24-75.776-32.768s-30.72-47.104-30.72-73.728c0-30.72 10.24-55.296 30.72-75.776s45.056-30.72 75.776-30.72z" />
<glyph unicode="&#xe90f;" glyph-name="telephone" d="M722.944 550.4c-24.576-55.296-116.736-231.424-311.296-313.344-10.24-4.096-24.576 0-30.72 8.192l-79.872 102.4c-8.192 12.288-24.576 14.336-36.864 10.24l-229.376-102.4c-14.336-6.144-20.48-20.48-18.432-34.816l51.2-231.424c2.048-12.288 12.288-20.48 26.624-20.48 90.112 0 444.416 14.336 684.032 307.2 233.472 284.672 225.28 526.336 217.088 593.92-2.048 10.24-10.24 20.48-20.48 22.528l-204.8 51.2c-12.288 4.096-26.624-2.048-34.816-14.336l-129.024-204.8c-8.192-12.288-6.144-28.672 4.096-38.912l108.544-108.544c6.144-4.096 8.192-16.384 4.096-26.624z" />
<glyph unicode="&#xe910;" glyph-name="close-btn" d="M227.328 939.52c32.768 0 61.44-14.336 83.968-45.056l569.344-759.808c14.336-20.48 22.528-40.96 22.528-65.536 0-30.72-10.24-57.344-32.768-77.824-22.528-22.528-45.056-32.768-71.68-32.768-32.768 0-61.44 16.384-83.968 47.104l-569.344 757.76c-14.336 20.48-22.528 40.96-22.528 65.536 0 30.72 10.24 57.344 30.72 77.824 22.528 22.528 45.056 32.768 73.728 32.768zM229.376-41.472c-22.528 0-45.056 10.24-67.584 28.672s-32.768 40.96-32.768 69.632c0 24.576 8.192 47.104 24.576 69.632l260.096 342.016 102.4-182.272-204.8-282.624c-22.528-30.72-49.152-45.056-81.92-45.056zM794.624 939.52c26.624 0 51.2-10.24 69.632-30.72s28.672-43.008 28.672-69.632c0-12.288-2.048-24.576-4.096-36.864-4.096-12.288-10.24-24.576-18.432-34.816l-258.048-335.872-108.544 159.744 208.896 299.008c24.576 32.768 51.2 49.152 81.92 49.152z" />
<glyph unicode="&#xe911;" glyph-name="advies" d="M546.816 46.592h-526.336v800.768h286.72v90.112l96.256-225.28-96.256-215.040v90.112h-200.704v-280.576h440.32v-260.096zM28.672 73.216h512v225.28h-440.32v315.392h215.040v-71.68l77.824 180.224-77.824 180.224v-71.68h-286.72c0 0 0-757.76 0-757.76zM716.8-43.52l-96.256 225.28 96.256 225.28v-90.112h200.704v278.528h-450.56v262.144h536.576v-802.816h-286.72v-98.304zM630.784 181.76l77.824-180.224v63.488h286.72v765.952h-522.24v-225.28h450.56v-315.392h-215.040v71.68l-77.824-180.224z" />
<glyph unicode="&#xe912;" glyph-name="controle" d="M522.24 790.016h481.28v-14.336h-481.28v14.336zM20.48 790.016h270.336v-14.336h-270.336v14.336zM407.552 626.176c-67.584 0-120.832 69.632-120.832 157.696s53.248 155.648 120.832 155.648 120.832-69.632 120.832-157.696-53.248-155.648-120.832-155.648zM407.552 925.184c-61.44 0-110.592-63.488-110.592-143.36s49.152-143.36 110.592-143.36 110.592 63.488 110.592 143.36-49.152 143.36-110.592 143.36zM860.16 454.144h143.36v-14.336h-143.36v14.336zM20.48 454.144h608.256v-14.336h-608.256v14.336zM745.472 290.304c-67.584 0-120.832 69.632-120.832 157.696 0 86.016 53.248 157.696 120.832 157.696s120.832-69.632 120.832-157.696c0-86.016-55.296-157.696-120.832-157.696zM745.472 591.36c-61.44 0-110.592-63.488-110.592-143.36s49.152-143.36 110.592-143.36 110.592 63.488 110.592 143.36-51.2 143.36-110.592 143.36zM346.112 120.32h657.408v-14.336h-657.408v14.336zM20.48 120.32h94.208v-14.336h-94.208v14.336zM229.376-43.52c-67.584 0-120.832 69.632-120.832 157.696s53.248 157.696 120.832 157.696 120.832-69.632 120.832-157.696-53.248-157.696-120.832-157.696zM229.376 257.536c-61.44 0-110.592-63.488-110.592-143.36s49.152-143.36 110.592-143.36 110.592 63.488 110.592 143.36-49.152 143.36-110.592 143.36z" />
<glyph unicode="&#xe913;" glyph-name="hrmpakket" d="M552.96 79.36h-83.968c-14.336 0-26.624 12.288-26.624 30.72v266.24h-6.144c-22.528 0-40.96 18.432-40.96 45.056v174.080c0 45.056 30.72 81.92 69.632 81.92h8.192c8.192 0 14.336-4.096 20.48-12.288l16.384-22.528 16.384 22.528c4.096 6.144 12.288 12.288 20.48 12.288h8.192c38.912 0 69.632-34.816 71.68-79.872v-178.176c0-24.576-18.432-45.056-40.96-45.056h-6.144v-266.24c2.048-12.288-10.24-28.672-26.624-28.672zM464.896 673.28c-34.816 0-63.488-30.72-63.488-73.728v-174.080c0-22.528 14.336-38.912 32.768-38.912h14.336v-276.48c0-12.288 8.192-22.528 20.48-22.528h83.968c10.24 0 20.48 10.24 20.48 22.528v278.528h14.336c18.432 0 32.768 16.384 32.768 38.912v174.080c0 40.96-28.672 73.728-63.488 73.728h-8.192c-6.144 0-12.288-4.096-16.384-10.24l-22.528-28.672-22.528 28.672c-4.096 4.096-10.24 8.192-16.384 8.192 0 0-6.144 0-6.144 0zM509.952 708.096c-43.008 0-77.824 40.96-77.824 88.064s34.816 88.064 77.824 88.064 77.824-40.96 77.824-88.064-34.816-88.064-77.824-88.064zM509.952 876.032c-38.912 0-69.632-34.816-69.632-81.92s30.72-81.92 69.632-81.92 69.632 34.816 69.632 81.92-30.72 81.92-69.632 81.92zM739.328 136.704h-83.968c-14.336 0-26.624 12.288-26.624 30.72v210.944h2.048c0 0 18.432 10.24 18.432 38.912 0 12.288 0 38.912 0 67.584 0 40.96 0 88.064 0 126.976 0 63.488-49.152 86.016-51.2 86.016h-4.096l2.048 4.096c12.288 22.528 34.816 34.816 57.344 34.816h8.192c8.192 0 14.336-4.096 20.48-12.288l16.384-22.528 16.384 22.528c4.096 6.144 12.288 12.288 20.48 12.288h8.192c38.912 0 71.68-34.816 71.68-81.92v-174.080c0-24.576-18.432-45.056-40.96-45.056h-6.144v-266.24c-2.048-20.48-14.336-32.768-28.672-32.768zM634.88 372.224v-202.752c0-12.288 8.192-22.528 20.48-22.528h83.968c10.24 0 20.48 10.24 20.48 22.528v274.432h14.336c18.432 0 32.768 16.384 32.768 38.912v174.080c0 40.96-28.672 73.728-63.488 73.728h-8.192c-6.144 0-12.288-4.096-16.384-10.24l-22.528-28.672-20.48 28.672c-4.096 6.144-10.24 10.24-16.384 10.24h-8.192c-18.432 0-36.864-10.24-49.152-24.576 12.288-6.144 51.2-34.816 51.2-92.16 0-38.912 0-88.064 0-126.976 0-28.672 0-53.248 0-67.584 2.048-30.72-12.288-45.056-18.432-47.104zM696.32 761.344c-43.008 0-77.824 40.96-77.824 88.064s34.816 90.112 77.824 90.112 77.824-40.96 77.824-88.064-34.816-90.112-77.824-90.112zM696.32 933.376c-38.912 0-71.68-34.816-71.68-81.92s30.72-81.92 71.68-81.92c38.912 0 69.632 34.816 69.632 81.92s-30.72 81.92-69.632 81.92zM370.688 136.704h-83.968c-14.336 0-26.624 12.288-26.624 30.72v266.24h-6.144c-22.528 0-40.96 18.432-40.96 45.056v174.080c0 45.056 30.72 81.92 69.632 81.92h8.192c8.192 0 16.384-4.096 20.48-12.288l16.384-22.528 16.384 22.528c6.144 6.144 12.288 12.288 20.48 12.288h8.192c22.528 0 43.008-12.288 57.344-34.816l2.048-4.096-4.096-4.096c-2.048 0-51.2-22.528-51.2-86.016 0-38.912 0-88.064 0-126.976 0-28.672 0-53.248 0-67.584 0-28.672 18.432-38.912 18.432-38.912h2.048v-210.944c0-12.288-12.288-24.576-26.624-24.576zM282.624 730.624c-34.816 0-63.488-30.72-63.488-73.728v-178.176c0-22.528 14.336-38.912 32.768-38.912h14.336v-276.48c0-12.288 8.192-22.528 20.48-22.528h83.968c10.24 0 20.48 10.24 20.48 22.528v202.752c-6.144 4.096-20.48 16.384-20.48 45.056 0 12.288 0 38.912 0 67.584 0 40.96 0 88.064 0 126.976 0 57.344 38.912 86.016 51.2 92.16-12.288 16.384-30.72 24.576-49.152 24.576h-8.192c-6.144 0-12.288-4.096-16.384-10.24l-20.48-22.528-22.528 28.672c-4.096 6.144-10.24 10.24-16.384 10.24h-6.144zM327.68 761.344c-43.008 0-77.824 40.96-77.824 88.064s34.816 90.112 77.824 90.112 77.824-40.96 77.824-88.064-34.816-90.112-77.824-90.112zM327.68 933.376c-38.912 0-69.632-34.816-69.632-81.92s30.72-81.92 69.632-81.92 69.632 34.816 69.632 81.92-30.72 81.92-69.632 81.92zM512-43.52c-270.336 0-491.52 75.776-491.52 167.936 0 57.344 79.872 108.544 217.088 139.264h4.096v-24.576h-2.048c-94.208-22.528-151.552-53.248-151.552-86.016 0-59.392 194.56-114.688 423.936-114.688s423.936 51.2 423.936 114.688c0 30.72-55.296 63.488-149.504 86.016h-2.048v24.576h4.096c139.264-30.72 217.088-81.92 217.088-139.264-2.048-94.208-217.088-167.936-493.568-167.936zM233.472 251.392c-129.024-30.72-206.848-79.872-206.848-129.024 0-88.064 217.088-157.696 485.376-157.696s485.376 73.728 485.376 157.696c0 51.2-77.824 102.4-208.896 129.024v-10.24c96.256-22.528 151.552-57.344 151.552-94.208 0-69.632-188.416-120.832-430.080-120.832s-430.080 53.248-430.080 120.832c0 38.912 55.296 69.632 153.6 94.208v10.24z" />
<glyph unicode="&#xe914;" glyph-name="interim" d="M184.32 161.28h-135.168c-16.384 0-28.672 12.288-28.672 28.672v518.144c0 16.384 14.336 28.672 28.672 28.672h135.168c16.384 0 28.672-12.288 28.672-28.672v-518.144c0-16.384-12.288-28.672-28.672-28.672zM49.152 732.672c-12.288 0-22.528-10.24-22.528-22.528v-518.144c0-12.288 10.24-22.528 22.528-22.528h135.168c12.288 0 22.528 10.24 22.528 22.528v516.096c0 12.288-10.24 22.528-22.528 22.528h-135.168zM481.28 404.992h-8.192v204.8c0 12.288-10.24 22.528-22.528 22.528h-135.168c-12.288 0-22.528-10.24-22.528-22.528v-204.8h-8.192v204.8c0 16.384 12.288 28.672 28.672 28.672h135.168c16.384 0 28.672-12.288 28.672-28.672v-204.8h4.096zM555.008 404.992h-8.192v505.856c0 16.384 12.288 28.672 28.672 28.672h135.168c16.384 0 28.672-12.288 28.672-28.672v-487.424h-8.192v487.424c0 12.288-10.24 22.528-22.528 22.528h-135.168c-12.288 0-22.528-10.24-22.528-22.528v-503.808h4.096zM980.992 161.28h-145.408c-12.288 0-22.528 10.24-22.528 22.528v178.176h6.144v-178.176c0-10.24 8.192-16.384 16.384-16.384h145.408c8.192 0 16.384 6.144 16.384 16.384v276.48c0 10.24-8.192 16.384-16.384 16.384h-145.408c-8.192 0-16.384-6.144-16.384-16.384v-86.016h-8.192v86.016c0 12.288 10.24 22.528 22.528 22.528h145.408c12.288 0 22.528-10.24 22.528-22.528v-276.48c2.048-10.24-8.192-22.528-20.48-22.528zM679.936-43.52h-434.176c-20.48 0-38.912 16.384-38.912 38.912s18.432 38.912 38.912 38.912h385.024c26.624 0 47.104 22.528 47.104 49.152v16.384c0 26.624-20.48 49.152-47.104 49.152h-350.208c-40.96 0-73.728 36.864-73.728 75.776v106.496c0 43.008 32.768 75.776 73.728 75.776h393.216v49.152l159.744-86.016-159.744-86.016v43.008h-331.776c-26.624 0-47.104-22.528-47.104-49.152s20.48-49.152 47.104-49.152h337.92c40.96 0 73.728-36.864 73.728-75.776v-122.88c2.048-40.96-32.768-73.728-73.728-73.728zM245.76 28.16c-18.432 0-30.72-12.288-30.72-32.768s14.336-32.768 30.72-32.768h436.224c36.864 0 67.584 32.768 67.584 69.632v122.88c0 38.912-30.72 69.632-67.584 69.632h-339.968c-28.672 0-53.248 26.624-53.248 55.296s24.576 55.296 53.248 55.296h337.92v-36.864l137.216 71.68-137.216 71.68v-43.008h-399.36c-36.864 0-67.584-28.672-67.584-69.632v-106.496c0-38.912 30.72-69.632 67.584-69.632h350.208c28.672 0 53.248-26.624 53.248-55.296v-16.384c0-28.672-24.576-55.296-53.248-55.296h-385.024z" />
<glyph unicode="&#xe915;" glyph-name="loonverwerking" d="M512 79.36c-202.752 0-368.64 165.888-368.64 368.64s165.888 368.64 368.64 368.64c202.752 0 368.64-165.888 368.64-368.64s-165.888-368.64-368.64-368.64zM512 808.448c-198.656 0-360.448-161.792-360.448-360.448s161.792-360.448 360.448-360.448 360.448 161.792 360.448 360.448c0 198.656-161.792 360.448-360.448 360.448zM292.864 34.304c-139.264 73.728-231.424 212.992-245.76 368.64h6.144c14.336-153.6 104.448-290.816 243.712-364.544l-4.096-4.096zM81.92 396.8l-34.816 51.2-26.624-55.296zM555.008-18.944v6.144c176.128 16.384 329.728 133.12 389.12 299.008l6.144-2.048c-61.44-165.888-215.040-286.72-395.264-303.104zM563.2 17.92l-51.2-34.816 53.248-26.624zM970.752 491.008c-16.384 176.128-133.12 327.68-299.008 389.12l2.048 6.144c167.936-61.44 286.72-217.088 303.104-395.264h-6.144zM944.128 499.2l32.768-51.2 26.624 53.248zM77.824 603.648l-6.144 2.048c61.44 169.984 217.088 290.816 397.312 307.2v-6.144c-178.176-16.384-331.776-135.168-391.168-303.104zM460.8 878.080l51.2 34.816-55.296 26.624zM538.624 568.832c-18.432 0-34.816-4.096-47.104-14.336-8.192-6.144-14.336-12.288-20.48-22.528s-10.24-20.48-10.24-28.672h112.64l-4.096-22.528h-110.592c0-2.048 0-4.096 0-6.144 0-8.192 0-14.336 0-14.336h106.496l-4.096-22.528h-98.304c4.096-24.576 16.384-43.008 32.768-53.248 12.288-8.192 26.624-12.288 40.96-12.288 20.48 0 36.864 6.144 49.152 16.384v-34.816c-14.336-6.144-28.672-10.24-45.056-10.24-49.152 0-83.968 20.48-100.352 61.44-4.096 8.192-6.144 18.432-8.192 30.72h-24.576l4.096 22.528h16.384c0 4.096 0 10.24 0 14.336 0 2.048 0 4.096 0 6.144h-22.528l4.096 22.528h18.432c6.144 36.864 24.576 61.44 53.248 77.824 18.432 10.24 36.864 14.336 59.392 14.336 20.48 0 36.864-4.096 51.2-14.336l-6.144-30.72c-16.384 16.384-30.72 20.48-47.104 20.48z" />
<glyph unicode="&#xe916;" glyph-name="ontslag" d="M610.304 386.56c0 10.24 0 96.256 0 106.496 0 4.096 4.096 10.24 16.384 28.672 20.48 34.816 59.392 102.4 63.488 149.504 4.096 65.536-4.096 92.16-10.24 100.352-2.048 4.096-6.144 6.144-10.24 6.144h-47.104v116.736c0 8.192-8.192 18.432-24.576 18.432-26.624 0-32.768-16.384-34.816-18.432l-6.144-12.288v16.384c0 2.048-2.048 32.768-28.672 32.768s-28.672-32.768-28.672-34.816h-6.144c0 2.048-2.048 34.816-28.672 34.816-28.672 0-28.672-36.864-28.672-38.912v-14.336l-6.144 12.288c-2.048 4.096-10.24 8.192-26.624 8.192-14.336-2.048-34.816-4.096-34.816-24.576 0-6.144 0-14.336 0-28.672 0-45.056 0-131.072 0-188.416 0-73.728 40.96-163.84 40.96-165.888v-102.4h-6.144v98.304c-4.096 12.288-40.96 96.256-40.96 169.984 0 59.392 0 143.36 0 188.416 0 14.336 0 22.528 0 28.672 0 20.48 14.336 32.768 38.912 32.768 10.24 0 20.48-2.048 26.624-6.144 0 14.336 8.192 38.912 32.768 38.912 20.48 0 28.672-14.336 32.768-24.576 4.096 10.24 14.336 24.576 32.768 24.576 22.528 0 32.768-18.432 34.816-30.72 6.144 6.144 16.384 14.336 34.816 14.336 20.48 0 32.768-14.336 32.768-28.672v-104.448h38.912c6.144 0 12.288-4.096 16.384-10.24 10.24-16.384 14.336-53.248 12.288-108.544-4.096-49.152-40.96-114.688-65.536-153.6-6.144-10.24-12.288-22.528-14.336-24.576-2.048-8.192-2.048-67.584 0-104.448l-6.144-2.048zM395.264 742.912c-12.288 0-24.576 4.096-34.816 18.432l4.096 6.144c12.288-16.384 28.672-18.432 38.912-14.336 12.288 2.048 20.48 10.24 20.48 12.288v124.928h6.144v-126.976c0-6.144-8.192-12.288-12.288-14.336s-12.288-6.144-22.528-6.144zM460.8 722.432c-30.72 0-36.864 43.008-36.864 43.008l6.144 2.048c0-2.048 4.096-34.816 28.672-34.816s28.672 28.672 30.72 28.672v135.168h6.144v-137.216c2.048 0-4.096-36.864-34.816-36.864zM524.288 720.384c-28.672 0-32.768 36.864-32.768 36.864l6.144 2.048c0-2.048 4.096-28.672 26.624-28.672 4.096 0 6.144 0 6.144 2.048s0 2.048 0 2.048-2.048 6.144-2.048 20.48c0 20.48 10.24 32.768 24.576 32.768 18.432 0 69.632 0 69.632 0v-10.24c0 0-53.248 0-69.632 0-14.336 0-18.432-12.288-18.432-24.576s2.048-16.384 2.048-16.384c0-2.048 2.048-6.144-2.048-12.288-2.048-2.048-6.144-4.096-10.24-4.096zM555.008 898.56h6.144v-112.64h-6.144v112.64zM628.736 687.616h-67.584c-26.624 24.576-28.672 47.104-28.672 47.104l6.144 2.048c0 0 2.048-18.432 26.624-38.912h65.536l-2.048-10.24zM528.384 603.648h-6.144c0 4.096 2.048 81.92 38.912 94.208l2.048-10.24c-32.768-10.24-34.816-83.968-34.816-83.968zM315.392 159.232h-290.816l2.048 6.144 141.312 587.776h196.608v-10.24h-190.464l141.312-583.68zM32.768 169.472h272.384l-135.168 563.2-137.216-563.2zM1007.616 159.232h-294.912l2.048 6.144 137.216 577.536h-161.792v10.24h169.984v-4.096l147.456-589.824zM722.944 169.472h274.432l-139.264 565.248-135.168-565.248zM169.984-43.52c-79.872 0-143.36 92.16-143.36 206.848h6.144c0-108.544 61.44-198.656 137.216-198.656s137.216 88.064 137.216 198.656h6.144c0-114.688-63.488-206.848-143.36-206.848zM862.208-43.52c-79.872 0-143.36 92.16-143.36 206.848h6.144c0-108.544 61.44-198.656 137.216-198.656s137.216 88.064 137.216 198.656h6.144c0-114.688-65.536-206.848-143.36-206.848z" />
<glyph unicode="&#xe917;" glyph-name="vacature" d="M425.984 93.696c-223.232 0-405.504 135.168-405.504 303.104 0 73.728 36.864 145.408 102.4 202.752l6.144-4.096c-65.536-55.296-100.352-124.928-100.352-198.656 0-163.84 178.176-296.96 395.264-296.96 219.136 0 397.312 133.12 397.312 296.96 0 71.68-34.816 141.312-96.256 194.56l6.144 4.096c63.488-55.296 98.304-124.928 98.304-198.656 2.048-167.936-180.224-303.104-403.456-303.104zM901.12-43.52c-2.048 0-4.096 0-6.144 0-28.672 2.048-57.344 12.288-75.776 28.672l-172.032 161.792 6.144 4.096 172.032-161.792c16.384-16.384 40.96-24.576 69.632-26.624 26.624 0 53.248 6.144 71.68 20.48s28.672 32.768 26.624 53.248c-2.048 20.48-12.288 36.864-32.768 51.2l-208.896 135.168 6.144 4.096 210.944-135.168c22.528-14.336 34.816-32.768 36.864-55.296 2.048-20.48-10.24-43.008-28.672-57.344-22.528-14.336-49.152-22.528-75.776-22.528zM532.48 517.632l-2.048 2.048c0 0-77.824 45.056-196.608 0l-2.048-2.048-161.792 118.784 4.096 2.048c4.096 2.048 104.448 57.344 194.56 65.536h2.048l59.392-47.104 59.392 47.104h2.048c0 0 100.352-10.24 194.56-65.536l4.096-2.048-4.096-2.048-153.6-116.736zM182.272 636.416l149.504-110.592c108.544 38.912 184.32 8.192 198.656 0l145.408 110.592c-83.968 47.104-169.984 59.392-186.368 61.44l-61.44-49.152-61.44 49.152c-75.776-6.144-163.84-51.2-184.32-61.44zM430.080 744.96c-71.68 0-129.024 43.008-129.024 98.304s57.344 96.256 129.024 96.256 129.024-43.008 129.024-98.304-57.344-96.256-129.024-96.256zM430.080 933.376c-67.584 0-120.832-40.96-120.832-90.112 0-51.2 55.296-90.112 120.832-90.112s120.832 40.96 120.832 90.112c0 49.152-53.248 90.112-120.832 90.112zM430.080 261.632c-104.448 0-188.416 63.488-188.416 141.312h8.192c0-73.728 81.92-135.168 180.224-135.168s180.224 61.44 180.224 135.168h8.192c0-77.824-83.968-141.312-188.416-141.312z" />
</font>
</defs>
</svg>
